<?xml version="1.0" encoding="UTF-8"?>
<!DOCTYPE svg PUBLIC "-//W3C//DTD SVG 1.1//EN" "http://www.w3.org/Graphics/SVG/1.1/DTD/svg11.dtd">
<!-- Creator: CorelDRAW -->
<svg xmlns="http://www.w3.org/2000/svg" xml:space="preserve" width="14mm" height="16mm" version="1.1" style="shape-rendering:geometricPrecision; text-rendering:geometricPrecision; image-rendering:optimizeQuality; fill-rule:evenodd; clip-rule:evenodd"
viewBox="0 0 1400 1600"
 xmlns:xlink="http://www.w3.org/1999/xlink"
 xmlns:xodm="http://www.corel.com/coreldraw/odm/2003">
 <defs>
  <style type="text/css">
   <![CDATA[
    .str0 {stroke:black;stroke-width:20;stroke-miterlimit:22.9256}
    .fil1 {fill:black}
    .fil0 {fill:black}
   ]]>
  </style>
 </defs>
 <g id="Слой_x0020_1">
  <metadata id="CorelCorpID_0Corel-Layer"/>
  <g id="_2037559519472">
   <path class="fil0 str0" d="M21.54 1497.21c2.91,57.18 5.49,63.69 50.75,66.88 45.27,3.2 133.21,3.1 179.19,0.47 45.99,-2.63 50.01,-7.79 52.06,-64.08 2.05,-56.29 2.11,-163.7 1.57,-218.14 -0.54,-54.44 -1.69,-55.9 -3.84,-58.69 -2.15,-2.78 -5.31,-6.89 -10.15,-9.32 -4.85,-2.42 -11.4,-3.16 -53.58,-3.67 -42.18,-0.51 -120,-0.8 -160.19,0.06 -40.2,0.87 -42.78,2.89 -47.37,5.35 -4.6,2.45 -11.21,5.34 -12.9,60.72 -1.69,55.37 1.55,163.24 4.46,220.42z"/>
   <path class="fil0 str0" d="M556.42 1418.99c2.91,118.81 5.49,132.33 50.75,138.97 45.27,6.65 133.21,6.43 179.19,0.97 45.99,-5.47 50.01,-16.19 52.06,-133.15 2.05,-116.96 2.11,-340.14 1.57,-453.25 -0.54,-113.11 -1.69,-116.15 -3.84,-121.94 -2.15,-5.79 -5.31,-14.33 -10.15,-19.37 -4.85,-5.03 -11.4,-6.57 -53.58,-7.63 -42.18,-1.07 -120,-1.67 -160.19,0.13 -40.2,1.8 -42.78,6.01 -47.37,11.1 -4.6,5.11 -11.21,11.11 -12.9,126.17 -1.69,115.06 1.55,339.18 4.46,458z"/>
   <path class="fil1 str0" d="M1089.26 1400.36c2.9,141.37 5.49,157.45 50.75,165.35 45.26,7.91 133.2,7.66 179.19,1.15 45.98,-6.51 50.01,-19.26 52.06,-158.42 2.04,-139.15 2.11,-404.7 1.57,-539.28 -0.54,-134.58 -1.7,-138.2 -3.85,-145.09 -2.15,-6.88 -5.3,-17.04 -10.15,-23.04 -4.85,-5.99 -11.4,-7.81 -53.58,-9.08 -42.18,-1.27 -120,-1.98 -160.19,0.16 -40.2,2.14 -42.77,7.14 -47.37,13.21 -4.59,6.07 -11.21,13.21 -12.9,150.11 -1.69,136.9 1.56,403.56 4.47,544.93z"/>
   <path class="fil0 str0" d="M57.23 1124.65c12.85,3.61 38.94,4.81 54.81,3.01 15.86,-1.81 21.48,-6.63 89.54,-72.48 68.06,-65.85 198.56,-192.74 265.62,-256.79 67.06,-64.04 70.67,-65.25 89.54,-65.65 18.88,-0.4 53.01,0 72.48,-1.2 19.48,-1.21 24.29,-4.02 126.09,-100.39 101.79,-96.37 300.55,-286.3 400.33,-381.26 99.79,-94.97 100.59,-94.97 100.59,-78.5 0,16.46 -0.8,49.39 0,67.26 0.8,17.87 3.21,20.68 15.06,21.28 11.84,0.6 33.12,-1 44.57,-2.61 11.44,-1.61 13.05,-3.21 13.25,-38.75 0.2,-35.54 -1,-105 -3.62,-140.74 -2.6,-35.74 -6.62,-37.75 -46.17,-39.15 -39.55,-1.41 -114.64,-2.21 -152.79,-1.41 -38.15,0.81 -39.35,3.22 -40.35,14.46 -1.01,11.24 -1.81,31.32 -0.2,42.16 1.6,10.84 5.62,12.45 25.29,12.65 19.68,0.2 55.01,-1 73.89,-0.6 18.87,0.4 21.28,2.41 -74.49,94.76 -95.77,92.36 -289.71,275.06 -388.89,367.21 -99.18,92.15 -103.6,93.76 -120.87,94.36 -17.26,0.6 -47.38,0.2 -65.25,0.2 -17.86,0 -23.49,0.4 -100.78,72.28 -77.3,71.88 -226.27,215.23 -303.17,289.51 -76.89,74.28 -81.71,79.51 -84.32,85.13 -2.61,5.62 -3.01,11.64 9.84,15.26z"/>
  </g>
 </g>
</svg>
